<svg xmlns="http://www.w3.org/2000/svg" viewBox="0 0 1200 420" width="1200" height="420" role="img" aria-label="TokenMaster — one bright graph-routed path blooming through a dim, out-of-focus code graph">
<defs>
  <linearGradient id="bg" x1="0" y1="0" x2="1" y2="1">
    <stop offset="0" stop-color="#04060e"/><stop offset="1" stop-color="#0a1430"/>
  </linearGradient>
  <radialGradient id="bloomA" cx="0.70" cy="0.30" r="0.62">
    <stop offset="0" stop-color="#4f46e5" stop-opacity="0.55"/>
    <stop offset="1" stop-color="#4f46e5" stop-opacity="0"/>
  </radialGradient>
  <radialGradient id="bloomB" cx="0.92" cy="0.78" r="0.5">
    <stop offset="0" stop-color="#0891b2" stop-opacity="0.42"/>
    <stop offset="1" stop-color="#0891b2" stop-opacity="0"/>
  </radialGradient>
  <linearGradient id="route" x1="0" y1="0" x2="1" y2="0">
    <stop offset="0" stop-color="#818cf8"/>
    <stop offset="0.5" stop-color="#a78bfa"/>
    <stop offset="1" stop-color="#22d3ee"/>
  </linearGradient>
  <linearGradient id="ink" x1="0" y1="0" x2="0" y2="1">
    <stop offset="0" stop-color="#f4f7ff"/><stop offset="1" stop-color="#c3cbe6"/>
  </linearGradient>
  <filter id="glow" x="-40%" y="-40%" width="180%" height="180%">
    <feGaussianBlur stdDeviation="6"/>
  </filter>
  <filter id="halo" x="-80%" y="-80%" width="260%" height="260%">
    <feGaussianBlur stdDeviation="3.4"/>
  </filter>
  <filter id="soften" x="-10%" y="-10%" width="120%" height="120%">
    <feGaussianBlur stdDeviation="1.15"/>
  </filter>
</defs>
<rect width="1200" height="420" fill="url(#bg)"/>
<rect width="1200" height="420" fill="url(#bloomA)"/>
<rect width="1200" height="420" fill="url(#bloomB)"/>
<g fill="#ffffff" opacity="0.022">
<circle cx="40" cy="40" r="1"/>
<circle cx="40" cy="74" r="1"/>
<circle cx="40" cy="108" r="1"/>
<circle cx="40" cy="142" r="1"/>
<circle cx="40" cy="176" r="1"/>
<circle cx="40" cy="210" r="1"/>
<circle cx="40" cy="244" r="1"/>
<circle cx="40" cy="278" r="1"/>
<circle cx="40" cy="312" r="1"/>
<circle cx="40" cy="346" r="1"/>
<circle cx="40" cy="380" r="1"/>
<circle cx="40" cy="414" r="1"/>
<circle cx="74" cy="40" r="1"/>
<circle cx="74" cy="74" r="1"/>
<circle cx="74" cy="108" r="1"/>
<circle cx="74" cy="142" r="1"/>
<circle cx="74" cy="176" r="1"/>
<circle cx="74" cy="210" r="1"/>
<circle cx="74" cy="244" r="1"/>
<circle cx="74" cy="278" r="1"/>
<circle cx="74" cy="312" r="1"/>
<circle cx="74" cy="346" r="1"/>
<circle cx="74" cy="380" r="1"/>
<circle cx="74" cy="414" r="1"/>
<circle cx="108" cy="40" r="1"/>
<circle cx="108" cy="74" r="1"/>
<circle cx="108" cy="108" r="1"/>
<circle cx="108" cy="142" r="1"/>
<circle cx="108" cy="176" r="1"/>
<circle cx="108" cy="210" r="1"/>
<circle cx="108" cy="244" r="1"/>
<circle cx="108" cy="278" r="1"/>
<circle cx="108" cy="312" r="1"/>
<circle cx="108" cy="346" r="1"/>
<circle cx="108" cy="380" r="1"/>
<circle cx="108" cy="414" r="1"/>
<circle cx="142" cy="40" r="1"/>
<circle cx="142" cy="74" r="1"/>
<circle cx="142" cy="108" r="1"/>
<circle cx="142" cy="142" r="1"/>
<circle cx="142" cy="176" r="1"/>
<circle cx="142" cy="210" r="1"/>
<circle cx="142" cy="244" r="1"/>
<circle cx="142" cy="278" r="1"/>
<circle cx="142" cy="312" r="1"/>
<circle cx="142" cy="346" r="1"/>
<circle cx="142" cy="380" r="1"/>
<circle cx="142" cy="414" r="1"/>
<circle cx="176" cy="40" r="1"/>
<circle cx="176" cy="74" r="1"/>
<circle cx="176" cy="108" r="1"/>
<circle cx="176" cy="142" r="1"/>
<circle cx="176" cy="176" r="1"/>
<circle cx="176" cy="210" r="1"/>
<circle cx="176" cy="244" r="1"/>
<circle cx="176" cy="278" r="1"/>
<circle cx="176" cy="312" r="1"/>
<circle cx="176" cy="346" r="1"/>
<circle cx="176" cy="380" r="1"/>
<circle cx="176" cy="414" r="1"/>
<circle cx="210" cy="40" r="1"/>
<circle cx="210" cy="74" r="1"/>
<circle cx="210" cy="108" r="1"/>
<circle cx="210" cy="142" r="1"/>
<circle cx="210" cy="176" r="1"/>
<circle cx="210" cy="210" r="1"/>
<circle cx="210" cy="244" r="1"/>
<circle cx="210" cy="278" r="1"/>
<circle cx="210" cy="312" r="1"/>
<circle cx="210" cy="346" r="1"/>
<circle cx="210" cy="380" r="1"/>
<circle cx="210" cy="414" r="1"/>
<circle cx="244" cy="40" r="1"/>
<circle cx="244" cy="74" r="1"/>
<circle cx="244" cy="108" r="1"/>
<circle cx="244" cy="142" r="1"/>
<circle cx="244" cy="176" r="1"/>
<circle cx="244" cy="210" r="1"/>
<circle cx="244" cy="244" r="1"/>
<circle cx="244" cy="278" r="1"/>
<circle cx="244" cy="312" r="1"/>
<circle cx="244" cy="346" r="1"/>
<circle cx="244" cy="380" r="1"/>
<circle cx="244" cy="414" r="1"/>
<circle cx="278" cy="40" r="1"/>
<circle cx="278" cy="74" r="1"/>
<circle cx="278" cy="108" r="1"/>
<circle cx="278" cy="142" r="1"/>
<circle cx="278" cy="176" r="1"/>
<circle cx="278" cy="210" r="1"/>
<circle cx="278" cy="244" r="1"/>
<circle cx="278" cy="278" r="1"/>
<circle cx="278" cy="312" r="1"/>
<circle cx="278" cy="346" r="1"/>
<circle cx="278" cy="380" r="1"/>
<circle cx="278" cy="414" r="1"/>
<circle cx="312" cy="40" r="1"/>
<circle cx="312" cy="74" r="1"/>
<circle cx="312" cy="108" r="1"/>
<circle cx="312" cy="142" r="1"/>
<circle cx="312" cy="176" r="1"/>
<circle cx="312" cy="210" r="1"/>
<circle cx="312" cy="244" r="1"/>
<circle cx="312" cy="278" r="1"/>
<circle cx="312" cy="312" r="1"/>
<circle cx="312" cy="346" r="1"/>
<circle cx="312" cy="380" r="1"/>
<circle cx="312" cy="414" r="1"/>
<circle cx="346" cy="40" r="1"/>
<circle cx="346" cy="74" r="1"/>
<circle cx="346" cy="108" r="1"/>
<circle cx="346" cy="142" r="1"/>
<circle cx="346" cy="176" r="1"/>
<circle cx="346" cy="210" r="1"/>
<circle cx="346" cy="244" r="1"/>
<circle cx="346" cy="278" r="1"/>
<circle cx="346" cy="312" r="1"/>
<circle cx="346" cy="346" r="1"/>
<circle cx="346" cy="380" r="1"/>
<circle cx="346" cy="414" r="1"/>
<circle cx="380" cy="40" r="1"/>
<circle cx="380" cy="74" r="1"/>
<circle cx="380" cy="108" r="1"/>
<circle cx="380" cy="142" r="1"/>
<circle cx="380" cy="176" r="1"/>
<circle cx="380" cy="210" r="1"/>
<circle cx="380" cy="244" r="1"/>
<circle cx="380" cy="278" r="1"/>
<circle cx="380" cy="312" r="1"/>
<circle cx="380" cy="346" r="1"/>
<circle cx="380" cy="380" r="1"/>
<circle cx="380" cy="414" r="1"/>
<circle cx="414" cy="40" r="1"/>
<circle cx="414" cy="74" r="1"/>
<circle cx="414" cy="108" r="1"/>
<circle cx="414" cy="142" r="1"/>
<circle cx="414" cy="176" r="1"/>
<circle cx="414" cy="210" r="1"/>
<circle cx="414" cy="244" r="1"/>
<circle cx="414" cy="278" r="1"/>
<circle cx="414" cy="312" r="1"/>
<circle cx="414" cy="346" r="1"/>
<circle cx="414" cy="380" r="1"/>
<circle cx="414" cy="414" r="1"/>
<circle cx="448" cy="40" r="1"/>
<circle cx="448" cy="74" r="1"/>
<circle cx="448" cy="108" r="1"/>
<circle cx="448" cy="142" r="1"/>
<circle cx="448" cy="176" r="1"/>
<circle cx="448" cy="210" r="1"/>
<circle cx="448" cy="244" r="1"/>
<circle cx="448" cy="278" r="1"/>
<circle cx="448" cy="312" r="1"/>
<circle cx="448" cy="346" r="1"/>
<circle cx="448" cy="380" r="1"/>
<circle cx="448" cy="414" r="1"/>
<circle cx="482" cy="40" r="1"/>
<circle cx="482" cy="74" r="1"/>
<circle cx="482" cy="108" r="1"/>
<circle cx="482" cy="142" r="1"/>
<circle cx="482" cy="176" r="1"/>
<circle cx="482" cy="210" r="1"/>
<circle cx="482" cy="244" r="1"/>
<circle cx="482" cy="278" r="1"/>
<circle cx="482" cy="312" r="1"/>
<circle cx="482" cy="346" r="1"/>
<circle cx="482" cy="380" r="1"/>
<circle cx="482" cy="414" r="1"/>
<circle cx="516" cy="40" r="1"/>
<circle cx="516" cy="74" r="1"/>
<circle cx="516" cy="108" r="1"/>
<circle cx="516" cy="142" r="1"/>
<circle cx="516" cy="176" r="1"/>
<circle cx="516" cy="210" r="1"/>
<circle cx="516" cy="244" r="1"/>
<circle cx="516" cy="278" r="1"/>
<circle cx="516" cy="312" r="1"/>
<circle cx="516" cy="346" r="1"/>
<circle cx="516" cy="380" r="1"/>
<circle cx="516" cy="414" r="1"/>
<circle cx="550" cy="40" r="1"/>
<circle cx="550" cy="74" r="1"/>
<circle cx="550" cy="108" r="1"/>
<circle cx="550" cy="142" r="1"/>
<circle cx="550" cy="176" r="1"/>
<circle cx="550" cy="210" r="1"/>
<circle cx="550" cy="244" r="1"/>
<circle cx="550" cy="278" r="1"/>
<circle cx="550" cy="312" r="1"/>
<circle cx="550" cy="346" r="1"/>
<circle cx="550" cy="380" r="1"/>
<circle cx="550" cy="414" r="1"/>
<circle cx="584" cy="40" r="1"/>
<circle cx="584" cy="74" r="1"/>
<circle cx="584" cy="108" r="1"/>
<circle cx="584" cy="142" r="1"/>
<circle cx="584" cy="176" r="1"/>
<circle cx="584" cy="210" r="1"/>
<circle cx="584" cy="244" r="1"/>
<circle cx="584" cy="278" r="1"/>
<circle cx="584" cy="312" r="1"/>
<circle cx="584" cy="346" r="1"/>
<circle cx="584" cy="380" r="1"/>
<circle cx="584" cy="414" r="1"/>
<circle cx="618" cy="40" r="1"/>
<circle cx="618" cy="74" r="1"/>
<circle cx="618" cy="108" r="1"/>
<circle cx="618" cy="142" r="1"/>
<circle cx="618" cy="176" r="1"/>
<circle cx="618" cy="210" r="1"/>
<circle cx="618" cy="244" r="1"/>
<circle cx="618" cy="278" r="1"/>
<circle cx="618" cy="312" r="1"/>
<circle cx="618" cy="346" r="1"/>
<circle cx="618" cy="380" r="1"/>
<circle cx="618" cy="414" r="1"/>
<circle cx="652" cy="40" r="1"/>
<circle cx="652" cy="74" r="1"/>
<circle cx="652" cy="108" r="1"/>
<circle cx="652" cy="142" r="1"/>
<circle cx="652" cy="176" r="1"/>
<circle cx="652" cy="210" r="1"/>
<circle cx="652" cy="244" r="1"/>
<circle cx="652" cy="278" r="1"/>
<circle cx="652" cy="312" r="1"/>
<circle cx="652" cy="346" r="1"/>
<circle cx="652" cy="380" r="1"/>
<circle cx="652" cy="414" r="1"/>
<circle cx="686" cy="40" r="1"/>
<circle cx="686" cy="74" r="1"/>
<circle cx="686" cy="108" r="1"/>
<circle cx="686" cy="142" r="1"/>
<circle cx="686" cy="176" r="1"/>
<circle cx="686" cy="210" r="1"/>
<circle cx="686" cy="244" r="1"/>
<circle cx="686" cy="278" r="1"/>
<circle cx="686" cy="312" r="1"/>
<circle cx="686" cy="346" r="1"/>
<circle cx="686" cy="380" r="1"/>
<circle cx="686" cy="414" r="1"/>
<circle cx="720" cy="40" r="1"/>
<circle cx="720" cy="74" r="1"/>
<circle cx="720" cy="108" r="1"/>
<circle cx="720" cy="142" r="1"/>
<circle cx="720" cy="176" r="1"/>
<circle cx="720" cy="210" r="1"/>
<circle cx="720" cy="244" r="1"/>
<circle cx="720" cy="278" r="1"/>
<circle cx="720" cy="312" r="1"/>
<circle cx="720" cy="346" r="1"/>
<circle cx="720" cy="380" r="1"/>
<circle cx="720" cy="414" r="1"/>
<circle cx="754" cy="40" r="1"/>
<circle cx="754" cy="74" r="1"/>
<circle cx="754" cy="108" r="1"/>
<circle cx="754" cy="142" r="1"/>
<circle cx="754" cy="176" r="1"/>
<circle cx="754" cy="210" r="1"/>
<circle cx="754" cy="244" r="1"/>
<circle cx="754" cy="278" r="1"/>
<circle cx="754" cy="312" r="1"/>
<circle cx="754" cy="346" r="1"/>
<circle cx="754" cy="380" r="1"/>
<circle cx="754" cy="414" r="1"/>
<circle cx="788" cy="40" r="1"/>
<circle cx="788" cy="74" r="1"/>
<circle cx="788" cy="108" r="1"/>
<circle cx="788" cy="142" r="1"/>
<circle cx="788" cy="176" r="1"/>
<circle cx="788" cy="210" r="1"/>
<circle cx="788" cy="244" r="1"/>
<circle cx="788" cy="278" r="1"/>
<circle cx="788" cy="312" r="1"/>
<circle cx="788" cy="346" r="1"/>
<circle cx="788" cy="380" r="1"/>
<circle cx="788" cy="414" r="1"/>
<circle cx="822" cy="40" r="1"/>
<circle cx="822" cy="74" r="1"/>
<circle cx="822" cy="108" r="1"/>
<circle cx="822" cy="142" r="1"/>
<circle cx="822" cy="176" r="1"/>
<circle cx="822" cy="210" r="1"/>
<circle cx="822" cy="244" r="1"/>
<circle cx="822" cy="278" r="1"/>
<circle cx="822" cy="312" r="1"/>
<circle cx="822" cy="346" r="1"/>
<circle cx="822" cy="380" r="1"/>
<circle cx="822" cy="414" r="1"/>
<circle cx="856" cy="40" r="1"/>
<circle cx="856" cy="74" r="1"/>
<circle cx="856" cy="108" r="1"/>
<circle cx="856" cy="142" r="1"/>
<circle cx="856" cy="176" r="1"/>
<circle cx="856" cy="210" r="1"/>
<circle cx="856" cy="244" r="1"/>
<circle cx="856" cy="278" r="1"/>
<circle cx="856" cy="312" r="1"/>
<circle cx="856" cy="346" r="1"/>
<circle cx="856" cy="380" r="1"/>
<circle cx="856" cy="414" r="1"/>
<circle cx="890" cy="40" r="1"/>
<circle cx="890" cy="74" r="1"/>
<circle cx="890" cy="108" r="1"/>
<circle cx="890" cy="142" r="1"/>
<circle cx="890" cy="176" r="1"/>
<circle cx="890" cy="210" r="1"/>
<circle cx="890" cy="244" r="1"/>
<circle cx="890" cy="278" r="1"/>
<circle cx="890" cy="312" r="1"/>
<circle cx="890" cy="346" r="1"/>
<circle cx="890" cy="380" r="1"/>
<circle cx="890" cy="414" r="1"/>
<circle cx="924" cy="40" r="1"/>
<circle cx="924" cy="74" r="1"/>
<circle cx="924" cy="108" r="1"/>
<circle cx="924" cy="142" r="1"/>
<circle cx="924" cy="176" r="1"/>
<circle cx="924" cy="210" r="1"/>
<circle cx="924" cy="244" r="1"/>
<circle cx="924" cy="278" r="1"/>
<circle cx="924" cy="312" r="1"/>
<circle cx="924" cy="346" r="1"/>
<circle cx="924" cy="380" r="1"/>
<circle cx="924" cy="414" r="1"/>
<circle cx="958" cy="40" r="1"/>
<circle cx="958" cy="74" r="1"/>
<circle cx="958" cy="108" r="1"/>
<circle cx="958" cy="142" r="1"/>
<circle cx="958" cy="176" r="1"/>
<circle cx="958" cy="210" r="1"/>
<circle cx="958" cy="244" r="1"/>
<circle cx="958" cy="278" r="1"/>
<circle cx="958" cy="312" r="1"/>
<circle cx="958" cy="346" r="1"/>
<circle cx="958" cy="380" r="1"/>
<circle cx="958" cy="414" r="1"/>
<circle cx="992" cy="40" r="1"/>
<circle cx="992" cy="74" r="1"/>
<circle cx="992" cy="108" r="1"/>
<circle cx="992" cy="142" r="1"/>
<circle cx="992" cy="176" r="1"/>
<circle cx="992" cy="210" r="1"/>
<circle cx="992" cy="244" r="1"/>
<circle cx="992" cy="278" r="1"/>
<circle cx="992" cy="312" r="1"/>
<circle cx="992" cy="346" r="1"/>
<circle cx="992" cy="380" r="1"/>
<circle cx="992" cy="414" r="1"/>
<circle cx="1026" cy="40" r="1"/>
<circle cx="1026" cy="74" r="1"/>
<circle cx="1026" cy="108" r="1"/>
<circle cx="1026" cy="142" r="1"/>
<circle cx="1026" cy="176" r="1"/>
<circle cx="1026" cy="210" r="1"/>
<circle cx="1026" cy="244" r="1"/>
<circle cx="1026" cy="278" r="1"/>
<circle cx="1026" cy="312" r="1"/>
<circle cx="1026" cy="346" r="1"/>
<circle cx="1026" cy="380" r="1"/>
<circle cx="1026" cy="414" r="1"/>
<circle cx="1060" cy="40" r="1"/>
<circle cx="1060" cy="74" r="1"/>
<circle cx="1060" cy="108" r="1"/>
<circle cx="1060" cy="142" r="1"/>
<circle cx="1060" cy="176" r="1"/>
<circle cx="1060" cy="210" r="1"/>
<circle cx="1060" cy="244" r="1"/>
<circle cx="1060" cy="278" r="1"/>
<circle cx="1060" cy="312" r="1"/>
<circle cx="1060" cy="346" r="1"/>
<circle cx="1060" cy="380" r="1"/>
<circle cx="1060" cy="414" r="1"/>
<circle cx="1094" cy="40" r="1"/>
<circle cx="1094" cy="74" r="1"/>
<circle cx="1094" cy="108" r="1"/>
<circle cx="1094" cy="142" r="1"/>
<circle cx="1094" cy="176" r="1"/>
<circle cx="1094" cy="210" r="1"/>
<circle cx="1094" cy="244" r="1"/>
<circle cx="1094" cy="278" r="1"/>
<circle cx="1094" cy="312" r="1"/>
<circle cx="1094" cy="346" r="1"/>
<circle cx="1094" cy="380" r="1"/>
<circle cx="1094" cy="414" r="1"/>
<circle cx="1128" cy="40" r="1"/>
<circle cx="1128" cy="74" r="1"/>
<circle cx="1128" cy="108" r="1"/>
<circle cx="1128" cy="142" r="1"/>
<circle cx="1128" cy="176" r="1"/>
<circle cx="1128" cy="210" r="1"/>
<circle cx="1128" cy="244" r="1"/>
<circle cx="1128" cy="278" r="1"/>
<circle cx="1128" cy="312" r="1"/>
<circle cx="1128" cy="346" r="1"/>
<circle cx="1128" cy="380" r="1"/>
<circle cx="1128" cy="414" r="1"/>
<circle cx="1162" cy="40" r="1"/>
<circle cx="1162" cy="74" r="1"/>
<circle cx="1162" cy="108" r="1"/>
<circle cx="1162" cy="142" r="1"/>
<circle cx="1162" cy="176" r="1"/>
<circle cx="1162" cy="210" r="1"/>
<circle cx="1162" cy="244" r="1"/>
<circle cx="1162" cy="278" r="1"/>
<circle cx="1162" cy="312" r="1"/>
<circle cx="1162" cy="346" r="1"/>
<circle cx="1162" cy="380" r="1"/>
<circle cx="1162" cy="414" r="1"/>
<circle cx="1196" cy="40" r="1"/>
<circle cx="1196" cy="74" r="1"/>
<circle cx="1196" cy="108" r="1"/>
<circle cx="1196" cy="142" r="1"/>
<circle cx="1196" cy="176" r="1"/>
<circle cx="1196" cy="210" r="1"/>
<circle cx="1196" cy="244" r="1"/>
<circle cx="1196" cy="278" r="1"/>
<circle cx="1196" cy="312" r="1"/>
<circle cx="1196" cy="346" r="1"/>
<circle cx="1196" cy="380" r="1"/>
<circle cx="1196" cy="414" r="1"/>
</g>
<g filter="url(#soften)" opacity="0.62">
<g stroke="#1b2547" stroke-width="1" fill="none">
<path d="M469.5,108.5 C525.2,108.5 525.2,87.4 580.9,87.4"/>
<path d="M473.0,173.4 C528.5,173.4 528.5,179.5 583.9,179.5"/>
<path d="M473.0,173.4 C531.2,173.4 531.2,133.4 589.4,133.4"/>
<path d="M481.2,254.8 C535.7,254.8 535.7,242.0 590.1,242.0"/>
<path d="M481.2,254.8 C536.1,254.8 536.1,283.4 590.9,283.4"/>
<path d="M470.6,330.2 C525.5,330.2 525.5,345.2 580.5,345.2"/>
<path d="M470.6,330.2 C530.8,330.2 530.8,283.4 590.9,283.4"/>
<path d="M470.6,330.2 C530.4,330.2 530.4,242.0 590.1,242.0"/>
<path d="M580.9,87.4 C642.6,87.4 642.6,78.4 704.2,78.4"/>
<path d="M589.4,133.4 C641.9,133.4 641.9,109.6 694.5,109.6"/>
<path d="M589.4,133.4 C643.6,133.4 643.6,162.4 697.7,162.4"/>
<path d="M589.4,133.4 C641.4,133.4 641.4,185.6 693.4,185.6"/>
<path d="M583.9,179.5 C638.7,179.5 638.7,185.6 693.4,185.6"/>
<path d="M583.9,179.5 C640.8,179.5 640.8,162.4 697.7,162.4"/>
<path d="M583.9,179.5 C643.2,179.5 643.2,241.2 702.5,241.2"/>
<path d="M590.1,242.0 C646.3,242.0 646.3,241.2 702.5,241.2"/>
<path d="M590.1,242.0 C647.5,242.0 647.5,280.9 704.8,280.9"/>
<path d="M590.1,242.0 C641.8,242.0 641.8,185.6 693.4,185.6"/>
<path d="M590.9,283.4 C647.9,283.4 647.9,280.9 704.8,280.9"/>
<path d="M590.9,283.4 C650.1,283.4 650.1,315.9 709.2,315.9"/>
<path d="M580.5,345.2 C641.0,345.2 641.0,353.2 701.6,353.2"/>
<path d="M704.2,78.4 C759.2,78.4 759.2,70.6 814.1,70.6"/>
<path d="M694.5,109.6 C753.9,109.6 753.9,108.7 813.4,108.7"/>
<path d="M694.5,109.6 C749.1,109.6 749.1,143.1 803.8,143.1"/>
<path d="M697.7,162.4 C753.0,162.4 753.0,171.1 808.2,171.1"/>
<path d="M697.7,162.4 C750.8,162.4 750.8,143.1 803.8,143.1"/>
<path d="M693.4,185.6 C750.8,185.6 750.8,171.1 808.2,171.1"/>
<path d="M702.5,241.2 C755.3,241.2 755.3,243.5 808.0,243.5"/>
<path d="M702.5,241.2 C754.9,241.2 754.9,205.6 807.2,205.6"/>
<path d="M704.8,280.9 C757.2,280.9 757.2,291.7 809.6,291.7"/>
<path d="M704.8,280.9 C756.4,280.9 756.4,243.5 808.0,243.5"/>
<path d="M704.8,280.9 C755.8,280.9 755.8,323.9 806.8,323.9"/>
<path d="M709.2,315.9 C758.0,315.9 758.0,323.9 806.8,323.9"/>
<path d="M709.2,315.9 C759.4,315.9 759.4,291.7 809.6,291.7"/>
<path d="M701.6,353.2 C760.7,353.2 760.7,359.3 819.9,359.3"/>
<path d="M701.6,353.2 C754.2,353.2 754.2,323.9 806.8,323.9"/>
<path d="M701.6,353.2 C755.6,353.2 755.6,291.7 809.6,291.7"/>
<path d="M814.1,70.6 C869.7,70.6 869.7,75.3 925.3,75.3"/>
<path d="M813.4,108.7 C870.4,108.7 870.4,106.2 927.5,106.2"/>
<path d="M813.4,108.7 C869.3,108.7 869.3,75.3 925.3,75.3"/>
<path d="M803.8,143.1 C862.5,143.1 862.5,146.6 921.2,146.6"/>
<path d="M803.8,143.1 C865.6,143.1 865.6,106.2 927.5,106.2"/>
<path d="M808.2,171.1 C864.7,171.1 864.7,146.6 921.2,146.6"/>
<path d="M807.2,205.6 C866.5,205.6 866.5,203.6 925.9,203.6"/>
<path d="M807.2,205.6 C866.9,205.6 866.9,235.4 926.7,235.4"/>
<path d="M808.0,243.5 C867.3,243.5 867.3,235.4 926.7,235.4"/>
<path d="M808.0,243.5 C868.2,243.5 868.2,281.6 928.3,281.6"/>
<path d="M809.6,291.7 C868.9,291.7 868.9,281.6 928.3,281.6"/>
<path d="M809.6,291.7 C862.2,291.7 862.2,309.8 914.9,309.8"/>
<path d="M806.8,323.9 C860.8,323.9 860.8,309.8 914.9,309.8"/>
<path d="M806.8,323.9 C863.0,323.9 863.0,352.0 919.2,352.0"/>
<path d="M819.9,359.3 C869.5,359.3 869.5,352.0 919.2,352.0"/>
<path d="M819.9,359.3 C867.4,359.3 867.4,309.8 914.9,309.8"/>
<path d="M925.3,75.3 C984.0,75.3 984.0,83.2 1042.6,83.2"/>
<path d="M927.5,106.2 C985.0,106.2 985.0,83.2 1042.6,83.2"/>
<path d="M927.5,106.2 C979.4,106.2 979.4,146.5 1031.3,146.5"/>
<path d="M921.2,146.6 C976.2,146.6 976.2,146.5 1031.3,146.5"/>
<path d="M921.2,146.6 C977.0,146.6 977.0,192.1 1032.8,192.1"/>
<path d="M921.2,146.6 C981.9,146.6 981.9,83.2 1042.6,83.2"/>
<path d="M925.9,203.6 C979.3,203.6 979.3,192.1 1032.8,192.1"/>
<path d="M926.7,235.4 C980.3,235.4 980.3,247.3 1033.9,247.3"/>
<path d="M928.3,281.6 C979.2,281.6 979.2,284.3 1030.1,284.3"/>
<path d="M928.3,281.6 C981.1,281.6 981.1,247.3 1033.9,247.3"/>
<path d="M914.9,309.8 C972.5,309.8 972.5,284.3 1030.1,284.3"/>
<path d="M914.9,309.8 C972.7,309.8 972.7,340.2 1030.4,340.2"/>
<path d="M919.2,352.0 C974.8,352.0 974.8,340.2 1030.4,340.2"/>
<path d="M919.2,352.0 C974.6,352.0 974.6,284.3 1030.1,284.3"/>
<path d="M1042.6,83.2 C1097.9,83.2 1097.9,107.4 1153.2,107.4"/>
<path d="M1031.3,146.5 C1086.1,146.5 1086.1,175.9 1140.9,175.9"/>
<path d="M1031.3,146.5 C1092.2,146.5 1092.2,107.4 1153.2,107.4"/>
<path d="M1032.8,192.1 C1086.9,192.1 1086.9,175.9 1140.9,175.9"/>
<path d="M1033.9,247.3 C1090.0,247.3 1090.0,260.1 1146.2,260.1"/>
<path d="M1030.1,284.3 C1088.1,284.3 1088.1,260.1 1146.2,260.1"/>
<path d="M1030.1,284.3 C1084.0,284.3 1084.0,314.2 1137.8,314.2"/>
<path d="M1030.1,284.3 C1085.5,284.3 1085.5,175.9 1140.9,175.9"/>
<path d="M1030.4,340.2 C1084.1,340.2 1084.1,314.2 1137.8,314.2"/>
</g>
<g fill="#33406e">
<circle cx="469.5" cy="108.5" r="2.6"/>
<circle cx="473.0" cy="173.4" r="2.6"/>
<circle cx="481.2" cy="254.8" r="2.6"/>
<circle cx="470.6" cy="330.2" r="2.6"/>
<circle cx="580.9" cy="87.4" r="2.6"/>
<circle cx="589.4" cy="133.4" r="2.6"/>
<circle cx="583.9" cy="179.5" r="2.6"/>
<circle cx="590.1" cy="242.0" r="2.6"/>
<circle cx="590.9" cy="283.4" r="2.6"/>
<circle cx="580.5" cy="345.2" r="2.6"/>
<circle cx="704.2" cy="78.4" r="2.6"/>
<circle cx="694.5" cy="109.6" r="2.6"/>
<circle cx="697.7" cy="162.4" r="2.6"/>
<circle cx="693.4" cy="185.6" r="2.6"/>
<circle cx="702.5" cy="241.2" r="2.6"/>
<circle cx="704.8" cy="280.9" r="2.6"/>
<circle cx="709.2" cy="315.9" r="2.6"/>
<circle cx="701.6" cy="353.2" r="2.6"/>
<circle cx="814.1" cy="70.6" r="2.6"/>
<circle cx="813.4" cy="108.7" r="2.6"/>
<circle cx="803.8" cy="143.1" r="2.6"/>
<circle cx="808.2" cy="171.1" r="2.6"/>
<circle cx="807.2" cy="205.6" r="2.6"/>
<circle cx="808.0" cy="243.5" r="2.6"/>
<circle cx="809.6" cy="291.7" r="2.6"/>
<circle cx="806.8" cy="323.9" r="2.6"/>
<circle cx="819.9" cy="359.3" r="2.6"/>
<circle cx="925.3" cy="75.3" r="2.6"/>
<circle cx="927.5" cy="106.2" r="2.6"/>
<circle cx="921.2" cy="146.6" r="2.6"/>
<circle cx="925.9" cy="203.6" r="2.6"/>
<circle cx="926.7" cy="235.4" r="2.6"/>
<circle cx="928.3" cy="281.6" r="2.6"/>
<circle cx="914.9" cy="309.8" r="2.6"/>
<circle cx="919.2" cy="352.0" r="2.6"/>
<circle cx="1042.6" cy="83.2" r="2.6"/>
<circle cx="1031.3" cy="146.5" r="2.6"/>
<circle cx="1032.8" cy="192.1" r="2.6"/>
<circle cx="1033.9" cy="247.3" r="2.6"/>
<circle cx="1030.1" cy="284.3" r="2.6"/>
<circle cx="1030.4" cy="340.2" r="2.6"/>
<circle cx="1153.2" cy="107.4" r="2.6"/>
<circle cx="1140.9" cy="175.9" r="2.6"/>
<circle cx="1146.2" cy="260.1" r="2.6"/>
<circle cx="1137.8" cy="314.2" r="2.6"/>
</g>
</g>
<g filter="url(#glow)" opacity="0.95">
<g stroke="url(#route)" stroke-width="7" fill="none" stroke-linecap="round">
<path d="M473.0,173.4 C528.5,173.4 528.5,179.5 583.9,179.5"/>
<path d="M583.9,179.5 C638.7,179.5 638.7,185.6 693.4,185.6"/>
<path d="M693.4,185.6 C750.8,185.6 750.8,171.1 808.2,171.1"/>
<path d="M808.2,171.1 C867.0,171.1 867.0,203.6 925.9,203.6"/>
<path d="M925.9,203.6 C979.3,203.6 979.3,192.1 1032.8,192.1"/>
<path d="M1032.8,192.1 C1086.9,192.1 1086.9,175.9 1140.9,175.9"/>
</g>
</g>
<g filter="url(#halo)">
<circle cx="473.0" cy="173.4" r="7" fill="#22d3ee" opacity="0.5"/>
<circle cx="583.9" cy="179.5" r="7" fill="#22d3ee" opacity="0.5"/>
<circle cx="693.4" cy="185.6" r="7" fill="#22d3ee" opacity="0.5"/>
<circle cx="808.2" cy="171.1" r="7" fill="#22d3ee" opacity="0.5"/>
<circle cx="925.9" cy="203.6" r="7" fill="#22d3ee" opacity="0.5"/>
<circle cx="1032.8" cy="192.1" r="7" fill="#22d3ee" opacity="0.5"/>
<circle cx="1140.9" cy="175.9" r="7" fill="#22d3ee" opacity="0.5"/>
</g>
<g stroke="url(#route)" stroke-width="2.6" fill="none" stroke-linecap="round">
<path d="M473.0,173.4 C528.5,173.4 528.5,179.5 583.9,179.5"/>
<path d="M583.9,179.5 C638.7,179.5 638.7,185.6 693.4,185.6"/>
<path d="M693.4,185.6 C750.8,185.6 750.8,171.1 808.2,171.1"/>
<path d="M808.2,171.1 C867.0,171.1 867.0,203.6 925.9,203.6"/>
<path d="M925.9,203.6 C979.3,203.6 979.3,192.1 1032.8,192.1"/>
<path d="M1032.8,192.1 C1086.9,192.1 1086.9,175.9 1140.9,175.9"/>
</g>
<circle cx="473.0" cy="173.4" r="6" fill="#e0e7ff" stroke="#22d3ee" stroke-width="1.5"/>
<circle cx="583.9" cy="179.5" r="4" fill="#e0e7ff" stroke="#22d3ee" stroke-width="1.5"/>
<circle cx="693.4" cy="185.6" r="4" fill="#e0e7ff" stroke="#22d3ee" stroke-width="1.5"/>
<circle cx="808.2" cy="171.1" r="4" fill="#e0e7ff" stroke="#22d3ee" stroke-width="1.5"/>
<circle cx="925.9" cy="203.6" r="4" fill="#e0e7ff" stroke="#22d3ee" stroke-width="1.5"/>
<circle cx="1032.8" cy="192.1" r="4" fill="#e0e7ff" stroke="#22d3ee" stroke-width="1.5"/>
<circle cx="1140.9" cy="175.9" r="6" fill="#e0e7ff" stroke="#22d3ee" stroke-width="1.5"/>
<circle r="3.4" fill="#ffffff"><animateMotion dur="5.5s" repeatCount="indefinite" path="M473.0,173.4 C528.5,173.4 528.5,179.5 583.9,179.5 M583.9,179.5 C638.7,179.5 638.7,185.6 693.4,185.6 M693.4,185.6 C750.8,185.6 750.8,171.1 808.2,171.1 M808.2,171.1 C867.0,171.1 867.0,203.6 925.9,203.6 M925.9,203.6 C979.3,203.6 979.3,192.1 1032.8,192.1 M1032.8,192.1 C1086.9,192.1 1086.9,175.9 1140.9,175.9"/></circle>
<text x="473" y="158" text-anchor="middle" font-family="ui-monospace,Menlo,monospace" font-size="11.5" fill="#a5b4fc" opacity="0.9">query</text>
<text x="1141" y="161" text-anchor="middle" font-family="ui-monospace,Menlo,monospace" font-size="11.5" fill="#22d3ee" opacity="0.95">answer</text>
<text x="70" y="150" font-family="ui-monospace,SFMono-Regular,Menlo,monospace" font-size="56" font-weight="800" fill="url(#ink)" letter-spacing="-1.5">TokenMaster</text>
<text x="72" y="184" font-family="ui-monospace,Menlo,monospace" font-size="15" fill="#94a3c8">understand your codebase once,</text>
<text x="72" y="206" font-family="ui-monospace,Menlo,monospace" font-size="15" fill="#94a3c8">and remember it.</text>
<g transform="translate(70,240)"><text x="0" y="0" font-family="ui-monospace,Menlo,monospace" font-size="15.5" font-weight="700" fill="#34e7c8">❯</text><text x="20" y="0" font-family="ui-monospace,Menlo,monospace" font-size="15.5" fill="#f4f7ff">/token-master</text><rect x="156" y="-12" width="9" height="16" rx="1.5" fill="#34e7c8"><animate attributeName="opacity" values="1;1;0;0" dur="1.1s" repeatCount="indefinite"/></rect></g>
<rect x="70" y="266" width="46" height="3" rx="1.5" fill="url(#route)"/>
<g transform="translate(70,286)"><text x="0" y="40" font-family="ui-monospace,Menlo,monospace" fill="url(#route)" letter-spacing="-1"><tspan font-size="20" font-weight="700" fill="#94a3c8">up to </tspan><tspan font-size="48" font-weight="800">7.8×</tspan></text><text x="205" y="26" font-family="ui-monospace,Menlo,monospace" font-size="13.5" fill="#f4f7ff">fewer cumulative</text><text x="205" y="45" font-family="ui-monospace,Menlo,monospace" font-size="13.5" fill="#94a3c8">context tokens</text></g>
</svg>